<?xml version="1.0" standalone="no"?>
<!DOCTYPE svg PUBLIC "-//W3C//DTD SVG 20010904//EN"
 "http://www.w3.org/TR/2001/REC-SVG-20010904/DTD/svg10.dtd">
<svg version="1.0" xmlns="http://www.w3.org/2000/svg"
 width="160.000000pt" height="160.000000pt" viewBox="0 0 160.000000 160.000000"
 preserveAspectRatio="xMidYMid meet">
<metadata>
Created by potrace 1.14, written by Peter Selinger 2001-2017
</metadata>
<g transform="translate(0.000000,160.000000) scale(0.100000,-0.100000)"
fill="#000000" stroke="none">
<path d="M724 1589 c-92 -17 -176 -75 -209 -146 -19 -38 -26 -137 -14 -190 4
-22 2 -36 -6 -43 -7 -6 -11 -18 -10 -28 18 -89 29 -122 40 -122 7 0 20 -20 30
-45 9 -25 28 -59 42 -75 l24 -29 -48 -25 c-51 -26 -103 -71 -130 -112 -12 -18
-21 -23 -37 -18 -38 13 -105 4 -159 -20 -90 -40 -143 -108 -163 -210 -19 -96
12 -218 63 -249 22 -14 15 -25 -24 -38 -41 -13 -69 -30 -72 -42 -2 -9 14 -30
56 -72 l32 -33 -20 -36 c-10 -20 -19 -40 -19 -46 0 -7 240 -10 705 -10 l705 0
-26 51 c-14 28 -24 52 -22 52 46 23 83 75 74 105 -4 11 -24 23 -51 30 l-46 12
29 38 c61 78 68 218 17 330 -27 59 -70 112 -91 112 -7 0 -14 6 -17 13 -2 8
-32 12 -99 12 l-96 0 -54 56 c-30 31 -75 66 -100 78 l-46 22 34 56 c19 31 34
63 34 70 0 7 8 17 19 22 26 14 50 133 31 156 -6 7 -9 26 -6 41 18 108 -4 205
-59 259 -56 57 -209 93 -311 74z"/>
</g>
</svg>
